<?xml version="1.0" encoding="iso-8859-1"?>
<!-- Generator: Adobe Illustrator 19.0.0, SVG Export Plug-In . SVG Version: 6.00 Build 0)  -->
<svg xmlns="http://www.w3.org/2000/svg" xmlns:xlink="http://www.w3.org/1999/xlink" version="1.1" id="Layer_1" x="0px" y="0px" viewBox="0 0 512 512" style="enable-background:new 0 0 512 512;" xml:space="preserve" width="512px" height="512px">
<g>
	<g>
		<path d="M500.942,345.394h-9.958V102.274v-80.72c0-6.108-4.951-11.058-11.058-11.058H32.075c-6.107,0-11.058,4.951-11.058,11.058    v80.72v243.12h-9.958C4.951,345.395,0,350.346,0,356.453c0,6.107,4.951,11.058,11.058,11.058h21.016h97.925L62.152,484.913    c-1.977,3.421-1.978,7.638-0.003,11.059c1.975,3.423,5.626,5.531,9.578,5.531h85.579c3.949,0,7.598-2.106,9.574-5.526    l74.242-128.469h29.755l74.242,128.469c1.976,3.419,5.625,5.526,9.574,5.526h85.579c3.951,0,7.603-2.109,9.578-5.531    c1.975-3.423,1.974-7.639-0.003-11.059L382,367.51h97.925h21.017c6.108,0,11.058-4.951,11.058-11.058    C512,350.345,507.049,345.394,500.942,345.394z M150.925,479.388H90.889l64.655-111.877h60.036L150.925,479.388z M421.111,479.388    h-60.036l-64.654-111.877h60.036L421.111,479.388z M468.867,345.395H362.838v-0.001h-85.579h-42.517h-85.579H43.133V113.333    h425.734V345.395z M468.867,91.216H43.133V72.973h341.382c6.107,0,11.058-4.951,11.058-11.058c0-6.108-4.951-11.058-11.058-11.058    H43.133V32.613h425.734V91.216z" fill="#a9b4c6"/>
	</g>
</g>
<g>
	<g>
		<path d="M428.831,54.098c-0.509-0.509-1.084-0.973-1.681-1.371c-0.608-0.409-1.25-0.741-1.913-1.017    c-0.664-0.276-1.36-0.498-2.068-0.63c-3.594-0.73-7.409,0.453-9.975,3.019c-2.068,2.057-3.24,4.899-3.24,7.818    c0,0.719,0.066,1.449,0.21,2.156c0.144,0.708,0.354,1.404,0.63,2.068c0.276,0.675,0.619,1.316,1.017,1.913    c0.409,0.608,0.863,1.172,1.382,1.681c2.046,2.057,4.899,3.24,7.818,3.24c0.719,0,1.438-0.077,2.156-0.221    c0.708-0.144,1.404-0.354,2.068-0.63c0.664-0.276,1.305-0.619,1.913-1.017c0.597-0.398,1.172-0.863,1.681-1.371    c0.509-0.509,0.973-1.073,1.371-1.681c0.398-0.597,0.741-1.239,1.017-1.913c0.276-0.664,0.487-1.36,0.63-2.068    c0.144-0.708,0.221-1.438,0.221-2.156C432.071,58.997,430.887,56.155,428.831,54.098z" fill="#a9b4c6"/>
	</g>
</g>
<g>
	<g>
		<path d="M372.667,133.357H268.188H139.333c-6.108,0-11.058,4.951-11.058,11.058v169.371c0,6.107,4.951,11.058,11.058,11.058    H268.19h104.479c6.107,0,11.058-4.951,11.058-11.058v-88.444v-80.926C383.726,138.308,378.775,133.357,372.667,133.357z     M257.131,225.341v77.386h-106.74V155.474h106.74V225.341z M361.609,302.729h-82.362v-66.328h82.362V302.729z M361.609,214.283    h-82.362v-58.809h82.362V214.283z" fill="#a9b4c6"/>
	</g>
</g>
<g>
</g>
<g>
</g>
<g>
</g>
<g>
</g>
<g>
</g>
<g>
</g>
<g>
</g>
<g>
</g>
<g>
</g>
<g>
</g>
<g>
</g>
<g>
</g>
<g>
</g>
<g>
</g>
<g>
</g>
</svg>
