<?xml version="1.0" encoding="iso-8859-1"?>
<!-- Generator: Adobe Illustrator 16.0.0, SVG Export Plug-In . SVG Version: 6.00 Build 0)  -->
<!DOCTYPE svg PUBLIC "-//W3C//DTD SVG 1.1//EN" "http://www.w3.org/Graphics/SVG/1.1/DTD/svg11.dtd">
<svg xmlns="http://www.w3.org/2000/svg" xmlns:xlink="http://www.w3.org/1999/xlink" version="1.1" id="Capa_1" x="0px" y="0px" width="512px" height="512px" viewBox="0 0 59 59" style="enable-background:new 0 0 59 59;" xml:space="preserve">
<g>
	<g>
		<g>
			<path d="M42,29.5c0-4.688,3.812-8.5,8.5-8.5s8.5,3.813,8.5,8.5c0,4.688-3.812,8.5-8.5,8.5S42,34.188,42,29.5z M55,29.5     c0-2.481-2.02-4.5-4.5-4.5S46,27.019,46,29.5c0,2.48,2.02,4.5,4.5,4.5S55,31.98,55,29.5z" fill="#4b8ad6"/>
		</g>
		<g>
			<path d="M21,29.5c0-4.688,3.813-8.5,8.5-8.5c4.688,0,8.5,3.813,8.5,8.5c0,4.688-3.812,8.5-8.5,8.5C24.813,38,21,34.188,21,29.5z      M34,29.5c0-2.481-2.02-4.5-4.5-4.5c-2.481,0-4.5,2.019-4.5,4.5c0,2.48,2.019,4.5,4.5,4.5C31.98,34,34,31.98,34,29.5z" fill="#4b8ad6"/>
		</g>
		<g>
			<path d="M0,29.5C0,24.812,3.813,21,8.5,21s8.5,3.813,8.5,8.5c0,4.688-3.813,8.5-8.5,8.5S0,34.188,0,29.5z M13,29.5     c0-2.481-2.019-4.5-4.5-4.5S4,27.019,4,29.5C4,31.98,6.019,34,8.5,34S13,31.98,13,29.5z" fill="#4b8ad6"/>
		</g>
	</g>
</g>
<g>
</g>
<g>
</g>
<g>
</g>
<g>
</g>
<g>
</g>
<g>
</g>
<g>
</g>
<g>
</g>
<g>
</g>
<g>
</g>
<g>
</g>
<g>
</g>
<g>
</g>
<g>
</g>
<g>
</g>
</svg>
